<svg id="logo" xmlns="http://www.w3.org/2000/svg" xmlns:xlink="http://www.w3.org/1999/xlink" width="342.41" height="28.008" viewBox="0 0 342.41 28.008">
  <defs>
    <linearGradient id="linear-gradient" y1="0.5" x2="1" y2="0.5" gradientUnits="objectBoundingBox">
      <stop offset="0" stop-color="#611ecf"/>
      <stop offset="0.502" stop-color="#e15ffd"/>
      <stop offset="1" stop-color="#fe9c05"/>
    </linearGradient>
  </defs>
  <path id="Path_33980" data-name="Path 33980" d="M-182.624.182a9.389,9.389,0,0,1-3.588-.65,5.849,5.849,0,0,1-2.535-1.924,5.256,5.256,0,0,1-1-3.068h4.732a2.378,2.378,0,0,0,.7,1.586,2.224,2.224,0,0,0,1.56.546,2.348,2.348,0,0,0,1.56-.481,1.6,1.6,0,0,0,.572-1.287,1.493,1.493,0,0,0-.455-1.118,3.67,3.67,0,0,0-1.118-.728,17.984,17.984,0,0,0-1.885-.65,20.525,20.525,0,0,1-2.886-1.092A5.332,5.332,0,0,1-188.89-10.3a4.492,4.492,0,0,1-.806-2.782,4.784,4.784,0,0,1,1.846-3.991,7.585,7.585,0,0,1,4.81-1.443,7.673,7.673,0,0,1,4.862,1.443,5.166,5.166,0,0,1,1.976,4.017h-4.81a1.96,1.96,0,0,0-.637-1.443A2.279,2.279,0,0,0-183.2-15a1.876,1.876,0,0,0-1.3.442,1.621,1.621,0,0,0-.494,1.274,1.531,1.531,0,0,0,.832,1.378,13.638,13.638,0,0,0,2.6,1.066A24.045,24.045,0,0,1-178.685-9.7a5.469,5.469,0,0,1,1.911,1.586,4.246,4.246,0,0,1,.806,2.678,5.255,5.255,0,0,1-.793,2.834,5.554,5.554,0,0,1-2.3,2.028A7.877,7.877,0,0,1-182.624.182Zm27.534-14.846a5.738,5.738,0,0,1,4.3,1.638,6.237,6.237,0,0,1,1.6,4.55V0h-4.42V-7.878a3,3,0,0,0-.741-2.171,2.705,2.705,0,0,0-2.041-.767,2.705,2.705,0,0,0-2.041.767,3,3,0,0,0-.741,2.171V0h-4.42V-7.878a3,3,0,0,0-.741-2.171,2.705,2.705,0,0,0-2.041-.767,2.705,2.705,0,0,0-2.041.767,3,3,0,0,0-.741,2.171V0H-173.6V-14.508h4.446v1.82a4.759,4.759,0,0,1,1.768-1.443,5.558,5.558,0,0,1,2.47-.533,6.008,6.008,0,0,1,2.925.7,5.033,5.033,0,0,1,2.015,2,5.844,5.844,0,0,1,2.054-1.95A5.55,5.55,0,0,1-155.09-14.664Zm7.774,7.384a8.671,8.671,0,0,1,.845-3.926,6.3,6.3,0,0,1,2.3-2.6,6.007,6.007,0,0,1,3.25-.91,5.583,5.583,0,0,1,2.691.624,4.6,4.6,0,0,1,1.781,1.638v-2.054H-132V0h-4.446V-2.054a4.8,4.8,0,0,1-1.807,1.638,5.583,5.583,0,0,1-2.691.624,5.9,5.9,0,0,1-3.224-.923,6.378,6.378,0,0,1-2.3-2.626A8.753,8.753,0,0,1-147.316-7.28Zm10.868.026a3.635,3.635,0,0,0-.923-2.626,3,3,0,0,0-2.249-.962,3.019,3.019,0,0,0-2.249.949,3.589,3.589,0,0,0-.923,2.613,3.682,3.682,0,0,0,.923,2.639,2.98,2.98,0,0,0,2.249.975,3,3,0,0,0,2.249-.962A3.635,3.635,0,0,0-136.448-7.254Zm11.752-4.654a6.07,6.07,0,0,1,1.963-2.015,4.78,4.78,0,0,1,2.587-.741v4.706h-1.222a3.746,3.746,0,0,0-2.5.715,3.176,3.176,0,0,0-.832,2.509V0h-4.446V-14.508h4.446Zm14.4,8.138V0h-2.262a5.537,5.537,0,0,1-3.77-1.183,4.889,4.889,0,0,1-1.352-3.861v-5.772h-1.768v-3.692h1.768v-3.536h4.446v3.536h2.912v3.692h-2.912v5.824a1.218,1.218,0,0,0,.312.936,1.523,1.523,0,0,0,1.04.286Zm19.63-14.482v3.51H-98.1v3.926h5.564v3.38H-98.1V0h-4.446V-18.252Zm4.212,2.236a2.7,2.7,0,0,1-1.911-.689,2.233,2.233,0,0,1-.741-1.7,2.262,2.262,0,0,1,.741-1.729,2.7,2.7,0,0,1,1.911-.689,2.659,2.659,0,0,1,1.885.689,2.262,2.262,0,0,1,.741,1.729,2.233,2.233,0,0,1-.741,1.7A2.659,2.659,0,0,1-86.45-16.016Zm2.21,1.508V0h-4.446V-14.508Zm11.7-.156a5.265,5.265,0,0,1,4.069,1.651A6.44,6.44,0,0,1-66.95-8.476V0h-4.42V-7.878a3.184,3.184,0,0,0-.754-2.262,2.644,2.644,0,0,0-2.028-.806,2.644,2.644,0,0,0-2.028.806,3.184,3.184,0,0,0-.754,2.262V0H-81.38V-14.508h4.446v1.924a4.691,4.691,0,0,1,1.82-1.521A5.786,5.786,0,0,1-72.54-14.664ZM-65.1-7.28a8.671,8.671,0,0,1,.845-3.926,6.3,6.3,0,0,1,2.3-2.6,6.007,6.007,0,0,1,3.25-.91,5.583,5.583,0,0,1,2.691.624,4.6,4.6,0,0,1,1.781,1.638v-2.054h4.446V0h-4.446V-2.054A4.8,4.8,0,0,1-56.043-.416a5.583,5.583,0,0,1-2.691.624,5.9,5.9,0,0,1-3.224-.923,6.378,6.378,0,0,1-2.3-2.626A8.753,8.753,0,0,1-65.1-7.28Zm10.868.026a3.635,3.635,0,0,0-.923-2.626,3,3,0,0,0-2.249-.962,3.019,3.019,0,0,0-2.249.949A3.589,3.589,0,0,0-60.58-7.28a3.682,3.682,0,0,0,.923,2.639,2.98,2.98,0,0,0,2.249.975,3,3,0,0,0,2.249-.962A3.635,3.635,0,0,0-54.236-7.254Zm16.146-7.41a5.265,5.265,0,0,1,4.069,1.651A6.44,6.44,0,0,1-32.5-8.476V0h-4.42V-7.878a3.184,3.184,0,0,0-.754-2.262,2.644,2.644,0,0,0-2.028-.806,2.644,2.644,0,0,0-2.028.806,3.184,3.184,0,0,0-.754,2.262V0H-46.93V-14.508h4.446v1.924a4.691,4.691,0,0,1,1.82-1.521A5.786,5.786,0,0,1-38.09-14.664Zm7.436,7.41a8.118,8.118,0,0,1,.923-3.952,6.411,6.411,0,0,1,2.574-2.6,7.707,7.707,0,0,1,3.783-.91,7.193,7.193,0,0,1,4.563,1.43,6.747,6.747,0,0,1,2.405,4.03h-4.732a2.277,2.277,0,0,0-2.314-1.664,2.332,2.332,0,0,0-1.95.949,4.39,4.39,0,0,0-.728,2.717A4.39,4.39,0,0,0-25.4-4.537a2.332,2.332,0,0,0,1.95.949,2.277,2.277,0,0,0,2.314-1.664h4.732a6.811,6.811,0,0,1-2.418,4A7.119,7.119,0,0,1-23.374.208,7.707,7.707,0,0,1-27.157-.7a6.411,6.411,0,0,1-2.574-2.6A8.118,8.118,0,0,1-30.654-7.254Zm29.926-.26A11.143,11.143,0,0,1-.806-6.24H-10.868a3.14,3.14,0,0,0,.858,2.106,2.623,2.623,0,0,0,1.9.728A2.336,2.336,0,0,0-5.8-4.81h4.732A6.493,6.493,0,0,1-2.379-2.236,6.574,6.574,0,0,1-4.758-.442a7.641,7.641,0,0,1-3.2.65,7.782,7.782,0,0,1-3.8-.91,6.473,6.473,0,0,1-2.6-2.6,8.027,8.027,0,0,1-.936-3.952,8.118,8.118,0,0,1,.923-3.952,6.389,6.389,0,0,1,2.587-2.6,7.837,7.837,0,0,1,3.822-.91,7.758,7.758,0,0,1,3.744.884A6.347,6.347,0,0,1-1.651-11.31,7.6,7.6,0,0,1-.728-7.514ZM-5.278-8.5a2.489,2.489,0,0,0-.78-1.95,2.806,2.806,0,0,0-1.95-.7,2.754,2.754,0,0,0-1.911.689A3.129,3.129,0,0,0-10.868-8.5Z" transform="translate(189.748 20.826)" fill="#1a1e28"/>
  <path id="Path_33977" data-name="Path 33977" d="M6.291-3.51h6.048V0H1.674V-18.954H6.291Zm6.966-4.05a9,9,0,0,1,.878-4.077,6.545,6.545,0,0,1,2.389-2.7,6.238,6.238,0,0,1,3.375-.945,5.8,5.8,0,0,1,2.795.648,4.773,4.773,0,0,1,1.849,1.7v-2.133H29.16V0H24.543V-2.133a4.986,4.986,0,0,1-1.876,1.7,5.8,5.8,0,0,1-2.794.648,6.126,6.126,0,0,1-3.348-.959A6.623,6.623,0,0,1,14.135-3.47,9.09,9.09,0,0,1,13.257-7.56Zm11.286.027a3.775,3.775,0,0,0-.958-2.727,3.114,3.114,0,0,0-2.335-1,3.135,3.135,0,0,0-2.336.986,3.727,3.727,0,0,0-.958,2.713,3.823,3.823,0,0,0,.958,2.74,3.1,3.1,0,0,0,2.336,1.012,3.114,3.114,0,0,0,2.335-1A3.775,3.775,0,0,0,24.543-7.533Zm16.767-7.7a5.467,5.467,0,0,1,4.226,1.715A6.687,6.687,0,0,1,47.115-8.8V0h-4.59V-8.181a3.306,3.306,0,0,0-.783-2.349,2.745,2.745,0,0,0-2.106-.837,2.745,2.745,0,0,0-2.106.837,3.306,3.306,0,0,0-.783,2.349V0H32.13V-15.066h4.617v2a4.871,4.871,0,0,1,1.89-1.58A6.009,6.009,0,0,1,41.31-15.228ZM49.032-7.56a9,9,0,0,1,.877-4.077,6.545,6.545,0,0,1,2.389-2.7,6.238,6.238,0,0,1,3.375-.945,5.928,5.928,0,0,1,2.714.621,4.945,4.945,0,0,1,1.931,1.674V-19.98h4.617V0H60.318V-2.16A4.7,4.7,0,0,1,58.469-.432a5.8,5.8,0,0,1-2.795.648A6.173,6.173,0,0,1,52.3-.743,6.623,6.623,0,0,1,49.91-3.47,9.09,9.09,0,0,1,49.032-7.56Zm11.286.027a3.775,3.775,0,0,0-.958-2.727,3.114,3.114,0,0,0-2.335-1,3.135,3.135,0,0,0-2.336.986A3.727,3.727,0,0,0,53.73-7.56a3.823,3.823,0,0,0,.958,2.74,3.1,3.1,0,0,0,2.336,1.012,3.114,3.114,0,0,0,2.335-1A3.775,3.775,0,0,0,60.318-7.533ZM74.007.216a8.588,8.588,0,0,1-3.483-.675,6,6,0,0,1-2.43-1.85,4.865,4.865,0,0,1-1-2.632h4.563A1.856,1.856,0,0,0,72.374-3.6a2.518,2.518,0,0,0,1.606.5,2.207,2.207,0,0,0,1.337-.351,1.117,1.117,0,0,0,.472-.945,1.038,1.038,0,0,0-.675-.972A11.491,11.491,0,0,0,72.9-6.048a21.489,21.489,0,0,1-2.687-.783,4.463,4.463,0,0,1-1.836-1.31,3.6,3.6,0,0,1-.77-2.417,4.193,4.193,0,0,1,.715-2.389,4.917,4.917,0,0,1,2.092-1.7,7.821,7.821,0,0,1,3.294-.634,6.63,6.63,0,0,1,4.468,1.4,5.463,5.463,0,0,1,1.876,3.726H75.789a1.933,1.933,0,0,0-.688-1.31,2.341,2.341,0,0,0-1.525-.472,2.042,2.042,0,0,0-1.242.324,1.08,1.08,0,0,0-.432.918,1.038,1.038,0,0,0,.688.972,11.027,11.027,0,0,0,2.146.648,22.761,22.761,0,0,1,2.727.823A4.561,4.561,0,0,1,79.326-6.9a3.756,3.756,0,0,1,.783,2.5,4.076,4.076,0,0,1-.729,2.376A4.776,4.776,0,0,1,77.261-.378,8.233,8.233,0,0,1,74.007.216Zm7.668-7.749a8.43,8.43,0,0,1,.959-4.1,6.657,6.657,0,0,1,2.673-2.7,8,8,0,0,1,3.929-.945A7.469,7.469,0,0,1,93.973-13.8a7.006,7.006,0,0,1,2.5,4.185H91.557a2.365,2.365,0,0,0-2.4-1.728,2.422,2.422,0,0,0-2.025.985,4.559,4.559,0,0,0-.756,2.821,4.559,4.559,0,0,0,.756,2.822,2.422,2.422,0,0,0,2.025.986,2.365,2.365,0,0,0,2.4-1.728h4.914A7.073,7.073,0,0,1,93.96-1.3,7.393,7.393,0,0,1,89.235.216a8,8,0,0,1-3.929-.945,6.657,6.657,0,0,1-2.673-2.7A8.43,8.43,0,0,1,81.675-7.533ZM97.632-7.56a9,9,0,0,1,.878-4.077,6.545,6.545,0,0,1,2.39-2.7,6.238,6.238,0,0,1,3.375-.945,5.8,5.8,0,0,1,2.794.648,4.773,4.773,0,0,1,1.85,1.7v-2.133h4.617V0h-4.617V-2.133a4.986,4.986,0,0,1-1.876,1.7,5.8,5.8,0,0,1-2.795.648A6.126,6.126,0,0,1,100.9-.743a6.623,6.623,0,0,1-2.39-2.727A9.09,9.09,0,0,1,97.632-7.56Zm11.286.027a3.775,3.775,0,0,0-.958-2.727,3.114,3.114,0,0,0-2.336-1,3.135,3.135,0,0,0-2.336.986,3.727,3.727,0,0,0-.958,2.713,3.823,3.823,0,0,0,.958,2.74,3.1,3.1,0,0,0,2.336,1.012,3.114,3.114,0,0,0,2.336-1A3.775,3.775,0,0,0,108.918-7.533Zm12.2-5.4a5.012,5.012,0,0,1,1.863-1.7,5.719,5.719,0,0,1,2.781-.648,6.238,6.238,0,0,1,3.375.945,6.545,6.545,0,0,1,2.389,2.7,9,9,0,0,1,.878,4.077,9.09,9.09,0,0,1-.878,4.09,6.623,6.623,0,0,1-2.389,2.727,6.173,6.173,0,0,1-3.375.959A5.739,5.739,0,0,1,123-.432a5.074,5.074,0,0,1-1.877-1.674V7.182h-4.617V-15.066h4.617ZM127.71-7.56a3.727,3.727,0,0,0-.958-2.713,3.166,3.166,0,0,0-2.363-.986,3.114,3.114,0,0,0-2.335,1,3.775,3.775,0,0,0-.959,2.727,3.775,3.775,0,0,0,.959,2.727,3.114,3.114,0,0,0,2.335,1,3.137,3.137,0,0,0,2.349-1.012A3.792,3.792,0,0,0,127.71-7.56ZM148.662-7.8a11.571,11.571,0,0,1-.081,1.323H138.132a3.261,3.261,0,0,0,.891,2.187,2.723,2.723,0,0,0,1.971.756,2.426,2.426,0,0,0,2.4-1.458h4.914a6.743,6.743,0,0,1-1.363,2.673,6.827,6.827,0,0,1-2.471,1.863,7.935,7.935,0,0,1-3.321.675,8.081,8.081,0,0,1-3.942-.945,6.722,6.722,0,0,1-2.7-2.7,8.336,8.336,0,0,1-.972-4.1,8.431,8.431,0,0,1,.958-4.1,6.635,6.635,0,0,1,2.687-2.7,8.138,8.138,0,0,1,3.969-.945,8.056,8.056,0,0,1,3.888.918,6.592,6.592,0,0,1,2.66,2.619A7.893,7.893,0,0,1,148.662-7.8Zm-4.725-1.026a2.585,2.585,0,0,0-.81-2.025,2.914,2.914,0,0,0-2.025-.729,2.86,2.86,0,0,0-1.984.715,3.249,3.249,0,0,0-.986,2.039Z" transform="translate(193.748 20.826)" fill="url(#linear-gradient)"/>
</svg>
