<svg id="logo" xmlns="http://www.w3.org/2000/svg" xmlns:xlink="http://www.w3.org/1999/xlink" width="287.615" height="54.305" viewBox="0 0 287.615 54.305">
  <defs>
    <linearGradient id="linear-gradient" x1="0.073" y1="0.5" x2="2.238" y2="0.5" gradientUnits="objectBoundingBox">
      <stop offset="0" stop-color="#31156d"/>
      <stop offset="0.414" stop-color="#ec4aaa"/>
      <stop offset="1" stop-color="#ff8361"/>
    </linearGradient>
    <linearGradient id="linear-gradient-2" x1="-0.003" y1="0.762" x2="0.857" y2="0.375" gradientUnits="objectBoundingBox">
      <stop offset="0.09" stop-color="#600fd0"/>
      <stop offset="0.38" stop-color="#b128aa"/>
      <stop offset="0.67" stop-color="#ea42b4"/>
      <stop offset="1" stop-color="#ff8560"/>
    </linearGradient>
    <linearGradient id="linear-gradient-3" x1="-28.791" y1="0.379" x2="21.9" y2="0.379" gradientUnits="objectBoundingBox">
      <stop offset="0" stop-color="#600fd0"/>
      <stop offset="0.49" stop-color="#cd2b8d"/>
      <stop offset="1" stop-color="#ff8560"/>
    </linearGradient>
    <linearGradient id="linear-gradient-4" x1="0.362" y1="0.134" x2="0.867" y2="1.631" gradientUnits="objectBoundingBox">
      <stop offset="0.02" stop-color="#fff"/>
      <stop offset="1" stop-color="#fff" stop-opacity="0.502"/>
    </linearGradient>
    <linearGradient id="linear-gradient-5" x1="0.438" y1="-0.003" x2="0.648" y2="1.59" xlink:href="#linear-gradient-4"/>
    <linearGradient id="linear-gradient-6" x1="0.468" y1="0.103" x2="0.78" y2="1.656" xlink:href="#linear-gradient-4"/>
    <linearGradient id="linear-gradient-7" x1="0.073" y1="0.5" x2="0.904" y2="0.5" gradientUnits="objectBoundingBox">
      <stop offset="0" stop-color="#eb49a9"/>
      <stop offset="0.414" stop-color="#ec4aaa"/>
      <stop offset="1" stop-color="#ff8361"/>
    </linearGradient>
  </defs>
  <path id="Path_34022" data-name="Path 34022" d="M-70.2,20.747a9.98,9.98,0,0,1-3.959-.753,6.5,6.5,0,0,1-2.785-2.167A5.707,5.707,0,0,1-78,14.485h4.515a3.066,3.066,0,0,0,.918,2.107,3.175,3.175,0,0,0,2.273.783,3.447,3.447,0,0,0,2.318-.722,2.41,2.41,0,0,0,.843-1.927,2.139,2.139,0,0,0-.572-1.535,4.007,4.007,0,0,0-1.43-.948,23.661,23.661,0,0,0-2.363-.768,25.309,25.309,0,0,1-3.326-1.189,5.826,5.826,0,0,1-2.2-1.776,5.062,5.062,0,0,1-.918-3.176,5.678,5.678,0,0,1,.933-3.251A5.935,5.935,0,0,1-74.388-.04a9.528,9.528,0,0,1,3.853-.738A8.359,8.359,0,0,1-65.252.8a5.859,5.859,0,0,1,2.243,4.41h-4.636a2.493,2.493,0,0,0-.918-1.881,3.459,3.459,0,0,0-2.273-.707,2.882,2.882,0,0,0-1.972.647,2.408,2.408,0,0,0-.738,1.912,1.9,1.9,0,0,0,.557,1.4,4.247,4.247,0,0,0,1.385.9q.828.346,2.333.8a24.508,24.508,0,0,1,3.341,1.2A6,6,0,0,1-63.7,11.294a5.017,5.017,0,0,1,.933,3.161,5.946,5.946,0,0,1-.873,3.131,6.163,6.163,0,0,1-2.559,2.3A8.727,8.727,0,0,1-70.2,20.747ZM-37.211,3.618A6.7,6.7,0,0,1-32.259,5.5a7.1,7.1,0,0,1,1.881,5.253v9.783h-4.214V11.324a4.166,4.166,0,0,0-.993-3,3.572,3.572,0,0,0-2.709-1.039,3.622,3.622,0,0,0-2.724,1.039,4.128,4.128,0,0,0-1.008,3v9.212h-4.214V11.324a4.166,4.166,0,0,0-.993-3,3.572,3.572,0,0,0-2.709-1.039A3.661,3.661,0,0,0-52.7,8.329a4.128,4.128,0,0,0-1.008,3v9.212h-4.214V3.859h4.214V5.876A5.609,5.609,0,0,1-51.615,4.22a6.527,6.527,0,0,1,2.815-.6,7.24,7.24,0,0,1,3.492.828A5.8,5.8,0,0,1-42.93,6.809a6.038,6.038,0,0,1,2.363-2.318A6.727,6.727,0,0,1-37.211,3.618Zm10.957,8.519a9.652,9.652,0,0,1,1.008-4.485,7.391,7.391,0,0,1,2.739-3.01,7.293,7.293,0,0,1,3.868-1.054,6.8,6.8,0,0,1,3.266.753,6.627,6.627,0,0,1,2.243,1.9V3.859h4.244V20.536h-4.244V18.1a6.269,6.269,0,0,1-2.243,1.942,6.862,6.862,0,0,1-3.3.768,7.087,7.087,0,0,1-3.838-1.084,7.584,7.584,0,0,1-2.739-3.055A9.813,9.813,0,0,1-26.253,12.137Zm13.125.06a5.406,5.406,0,0,0-.6-2.634,4.245,4.245,0,0,0-1.626-1.686,4.345,4.345,0,0,0-2.2-.587,4.268,4.268,0,0,0-2.167.572,4.307,4.307,0,0,0-1.61,1.671,5.234,5.234,0,0,0-.617,2.6,5.406,5.406,0,0,0,.617,2.634A4.443,4.443,0,0,0-19.706,16.5a4.129,4.129,0,0,0,2.152.6,4.345,4.345,0,0,0,2.2-.587,4.245,4.245,0,0,0,1.626-1.686A5.406,5.406,0,0,0-13.129,12.2ZM.658,6.809A6.262,6.262,0,0,1,2.781,4.461a5.412,5.412,0,0,1,3-.843V8.043H4.662a4.269,4.269,0,0,0-3,.933A4.3,4.3,0,0,0,.658,12.227v8.308H-3.556V3.859H.658Zm14.058.512v8.068a1.594,1.594,0,0,0,.406,1.219,2,2,0,0,0,1.37.376h1.957v3.552H15.8q-5.328,0-5.328-5.178V7.321H8.485V3.859h1.987V-.265h4.244V3.859h3.733V7.321Z" transform="translate(137.609 27.86)" fill="url(#linear-gradient)"/>
  <rect id="Rectangle_7585" data-name="Rectangle 7585" width="7.807" height="7.341" rx="3.67" transform="translate(12.803 41.326)" fill="#fe915d"/>
  <path id="Path_33986" data-name="Path 33986" d="M63.876,55.966H59.1a.548.548,0,0,1-.548-.548V50.883A.548.548,0,0,0,58,50.335H53.168a.548.548,0,0,1-.548-.548V41.5a.548.548,0,0,0-.548-.548H46.442a.548.548,0,0,1-.548-.548V32.818a.548.548,0,0,1,.548-.548h2.666a.548.548,0,0,0,.548-.548v-6.31a.548.548,0,0,1,.548-.548h2.156a.548.548,0,0,0,.548-.548V21.155a.548.548,0,0,0-.548-.548H50.2a.548.548,0,0,1-.548-.548V15.142a1.045,1.045,0,0,0-.883-1.035A27.167,27.167,0,0,0,17.534,41.343c.2,14.282,12.349,26.49,26.631,26.757A27.441,27.441,0,0,0,63.7,60.334a5.222,5.222,0,0,0,.391-.479l.117-.157a1.018,1.018,0,0,0,.2-.6l.019-2.586a.548.548,0,0,0-.548-.548Z" transform="translate(-17.531 -13.8)" fill="url(#linear-gradient-2)"/>
  <path id="Path_33987" data-name="Path 33987" d="M203.005,390.05h-.925C202.39,390.056,202.7,390.054,203.005,390.05Z" transform="translate(-175.446 -335.75)" fill="url(#linear-gradient-3)"/>
  <rect id="Rectangle_7579" data-name="Rectangle 7579" width="4.024" height="3.783" rx="0.5" transform="translate(40.07 2.029)" fill="#fd9980"/>
  <rect id="Rectangle_7643" data-name="Rectangle 7643" width="4.024" height="3.783" rx="0.5" transform="translate(45.74 26.276)" fill="#fd9980"/>
  <g id="Group_57494" data-name="Group 57494" transform="translate(0)">
    <rect id="Rectangle_7613" data-name="Rectangle 7613" width="115.995" height="17.595" rx="8.797" transform="translate(59.609 2.029)" fill="#31156d"/>
    <path id="Path_34024" data-name="Path 34024" d="M-37.946-.759h2.661V.226h-3.951V-7.642h1.291Zm10.631-.623H-30.61L-31.176.226h-1.347l2.819-7.88h1.494l2.819,7.88h-1.359Zm-.351-1.008-1.291-3.7-1.3,3.7ZM-15.552.226h-1.291l-3.883-5.876V.226h-1.291v-7.88h1.291l3.883,5.865V-7.653h1.291Zm6.419-7.869a4.792,4.792,0,0,1,2.2.481A3.442,3.442,0,0,1-5.47-5.78a4.155,4.155,0,0,1,.515,2.1A4.061,4.061,0,0,1-5.47-1.6,3.4,3.4,0,0,1-6.93-.243a4.889,4.889,0,0,1-2.2.47H-11.7V-7.642Zm0,6.884A2.772,2.772,0,0,0-7.021-1.54a2.981,2.981,0,0,0,.742-2.14,2.977,2.977,0,0,0-.742-2.145A2.784,2.784,0,0,0-9.133-6.6h-1.279V-.759ZM1.068.306A3.524,3.524,0,0,1-.358.028a2.341,2.341,0,0,1-1-.787,2,2,0,0,1-.362-1.189H-.336a1.313,1.313,0,0,0,.4.872,1.4,1.4,0,0,0,1,.34A1.508,1.508,0,0,0,2.11-1.07a1.108,1.108,0,0,0,.374-.866.909.909,0,0,0-.232-.645,1.553,1.553,0,0,0-.577-.385,8.707,8.707,0,0,0-.957-.294A8.964,8.964,0,0,1-.534-3.674a2.067,2.067,0,0,1-.821-.651A1.881,1.881,0,0,1-1.694-5.5a2.093,2.093,0,0,1,.34-1.189A2.17,2.17,0,0,1-.4-7.472a3.456,3.456,0,0,1,1.415-.272,2.949,2.949,0,0,1,1.874.572A2.109,2.109,0,0,1,3.695-5.6H2.268a1.086,1.086,0,0,0-.4-.776,1.484,1.484,0,0,0-.991-.311A1.374,1.374,0,0,0-.036-6.4a1.051,1.051,0,0,0-.345.855.827.827,0,0,0,.221.594,1.559,1.559,0,0,0,.56.368,8.7,8.7,0,0,0,.928.294,9.692,9.692,0,0,1,1.274.43A2.12,2.12,0,0,1,3.44-3.2,1.9,1.9,0,0,1,3.786-2,2.148,2.148,0,0,1,3.463-.872a2.328,2.328,0,0,1-.94.855A3.1,3.1,0,0,1,1.068.306ZM7.035-3.725A4.019,4.019,0,0,1,7.573-5.8,3.829,3.829,0,0,1,9.033-7.229a4.076,4.076,0,0,1,2.021-.515,4.106,4.106,0,0,1,2.236.617,3.513,3.513,0,0,1,1.421,1.749H13.16a2.08,2.08,0,0,0-.849-.889,2.558,2.558,0,0,0-1.257-.3,2.746,2.746,0,0,0-1.393.351,2.459,2.459,0,0,0-.957,1,3.12,3.12,0,0,0-.345,1.494,3.153,3.153,0,0,0,.345,1.5,2.451,2.451,0,0,0,.957,1,2.746,2.746,0,0,0,1.393.351,2.558,2.558,0,0,0,1.257-.3,2.08,2.08,0,0,0,.849-.889h1.551A3.484,3.484,0,0,1,13.29-.317a4.134,4.134,0,0,1-2.236.611A4.067,4.067,0,0,1,9.027-.221,3.841,3.841,0,0,1,7.573-1.653,4.019,4.019,0,0,1,7.035-3.725ZM23.112-1.381H19.817L19.251.226H17.9l2.819-7.88h1.494L25.036.226H23.678Zm-.351-1.008-1.291-3.7-1.3,3.7ZM33.913-5.3a2.376,2.376,0,0,1-.283,1.132,2.121,2.121,0,0,1-.906.866,3.362,3.362,0,0,1-1.6.334H29.7V.226H28.41V-7.642h2.717a3.431,3.431,0,0,1,1.534.311,2.165,2.165,0,0,1,.94.843A2.31,2.31,0,0,1,33.913-5.3ZM31.127-3.974a1.523,1.523,0,0,0,1.1-.351,1.292,1.292,0,0,0,.362-.974,1.308,1.308,0,0,0-.362-.985,1.523,1.523,0,0,0-1.1-.351H29.7v2.661Zm7.461-2.672v2.389h2.717v1H38.588V-.781h3.057V.226H37.3v-7.88h4.348v1.008Z" transform="translate(122.163 14.473)" fill="#fff"/>
    <rect id="Rectangle_7638" data-name="Rectangle 7638" width="4.141" height="3.893" rx="0.5" transform="translate(67.877 6.264)" fill="#fff"/>
    <rect id="Rectangle_7641" data-name="Rectangle 7641" width="4.141" height="3.893" rx="0.5" transform="translate(67.877 11.496)" fill="#fff"/>
    <rect id="Rectangle_7639" data-name="Rectangle 7639" width="4.141" height="3.893" rx="0.5" transform="translate(73.566 6.264)" fill="#fff"/>
    <rect id="Rectangle_7640" data-name="Rectangle 7640" width="4.141" height="3.893" rx="0.5" transform="translate(73.566 11.496)" fill="#fff"/>
  </g>
  <rect id="Rectangle_7580" data-name="Rectangle 7580" width="4.024" height="3.783" rx="0.5" transform="translate(37.295 14.041)" fill="#fd6c8e"/>
  <rect id="Rectangle_7581" data-name="Rectangle 7581" width="5.361" height="5.041" rx="0.5" transform="translate(37.39 28.315)" fill="#fe6964"/>
  <rect id="Rectangle_7582" data-name="Rectangle 7582" width="3.615" height="3.399" rx="0.5" transform="translate(44.137 36.188)" fill="#ff8560"/>
  <rect id="Rectangle_7586" data-name="Rectangle 7586" width="3.011" height="2.832" rx="0.5" transform="translate(40.624 21.042)" fill="#fe6887"/>
  <rect id="Rectangle_7587" data-name="Rectangle 7587" width="3.901" height="3.667" rx="0.5" transform="translate(31.479 20.623)" fill="#f66785"/>
  <rect id="Rectangle_7591" data-name="Rectangle 7591" width="2.41" height="2.267" rx="0.5" transform="translate(38.607 8.441)" fill="#fe878c"/>
  <rect id="Rectangle_7642" data-name="Rectangle 7642" width="2.41" height="2.267" rx="0.5" transform="translate(45.945 12.149)" fill="#fe878c"/>
  <path id="Path_33988" data-name="Path 33988" d="M148.3,31.459l3.249-2.4H158.5v3.547l-5.1,4.249-2-.9-.051-2.35Z" transform="translate(-129.427 -26.858)" fill="#fefefe" opacity="0.94"/>
  <path id="Path_33989" data-name="Path 33989" d="M42.976,54.958h1.951l4.249-2.348,4,2.1,3.35,5.8-9.447,8.4-.1,1.6-4.849.7,1.4,2.449h1.6l1.55,4.449,5.947-1.3,11.647,7.8-1.449,4.448-7.7,8.9h-2.5l-1-9.447L47.176,85l-.649-6.048L37.779,73.2l-.649-8.148.2-1Z" transform="translate(-34.301 -47.009)" opacity="0.94" fill="url(#linear-gradient-4)"/>
  <rect id="Rectangle_7592" data-name="Rectangle 7592" width="2.055" height="1.932" rx="0.73" transform="translate(29.151 7.664)" fill="#fff"/>
  <path id="Path_33990" data-name="Path 33990" d="M108.13,195.87l3.885,1.992-3.449.55Z" transform="translate(-95.055 -169.594)" fill="url(#linear-gradient-5)"/>
  <path id="Path_33991" data-name="Path 33991" d="M103.28,221.53l13.038,8.967-1.442,7.236,4.549-5.258,1.449-4.448-11.647-7.8Z" transform="translate(-90.905 -190.438)" opacity="0.39" fill="url(#linear-gradient-6)"/>
  <path id="Path_33992" data-name="Path 33992" d="M113.219,72.35l-5.1,2.25Z" transform="translate(-95.047 -63.901)"/>
  <path id="Path_33993" data-name="Path 33993" d="M113.479,73.9l-.251-1.549-5.1,2.249v.85l2.549,1.7,1.049-.8.15-1.749Z" transform="translate(-95.055 -63.901)" fill="#d639b0"/>
  <path id="Path_34023" data-name="Path 34023" d="M650.821-13.185v3.191h-8.442v5.309h6.469v3.133h-6.469V7.063h-4.061V-13.185Zm6.092,2.263a2.475,2.475,0,0,1-1.784-.682,2.256,2.256,0,0,1-.711-1.7,2.256,2.256,0,0,1,.711-1.7,2.475,2.475,0,0,1,1.784-.682A2.475,2.475,0,0,1,658.7-15a2.256,2.256,0,0,1,.711,1.7,2.256,2.256,0,0,1-.711,1.7A2.475,2.475,0,0,1,656.913-10.922Zm2,1.915V7.063h-4.061V-9.008Zm14.07-.232a6.2,6.2,0,0,1,4.641,1.813,6.941,6.941,0,0,1,1.77,5.062V7.063h-4.061V-1.813a4.167,4.167,0,0,0-.957-2.944,3.39,3.39,0,0,0-2.611-1.03,3.474,3.474,0,0,0-2.654,1.03,4.128,4.128,0,0,0-.972,2.944V7.063h-4.061V-9.008h4.061v2a5.61,5.61,0,0,1,2.074-1.639A6.416,6.416,0,0,1,672.984-9.24Zm10.385,8.21a9.3,9.3,0,0,1,.972-4.322,7.122,7.122,0,0,1,2.64-2.9,7.028,7.028,0,0,1,3.728-1.015,6.548,6.548,0,0,1,3.147.725,6.386,6.386,0,0,1,2.161,1.828V-9.008h4.09V7.063h-4.09V4.714a6.041,6.041,0,0,1-2.161,1.871,6.612,6.612,0,0,1-3.177.74,6.83,6.83,0,0,1-3.7-1.044,7.308,7.308,0,0,1-2.64-2.944A9.457,9.457,0,0,1,683.369-1.03Zm12.648.058a5.21,5.21,0,0,0-.58-2.538,4.09,4.09,0,0,0-1.567-1.625,4.187,4.187,0,0,0-2.118-.566,4.113,4.113,0,0,0-2.089.551,4.151,4.151,0,0,0-1.552,1.61,5.043,5.043,0,0,0-.595,2.509,5.209,5.209,0,0,0,.595,2.538,4.281,4.281,0,0,0,1.567,1.668,3.979,3.979,0,0,0,2.074.58,4.187,4.187,0,0,0,2.118-.566,4.09,4.09,0,0,0,1.567-1.625A5.21,5.21,0,0,0,696.017-.972ZM714.148-9.24a6.2,6.2,0,0,1,4.641,1.813,6.941,6.941,0,0,1,1.77,5.062V7.063H716.5V-1.813a4.167,4.167,0,0,0-.957-2.944,3.39,3.39,0,0,0-2.611-1.03,3.474,3.474,0,0,0-2.654,1.03,4.127,4.127,0,0,0-.972,2.944V7.063h-4.061V-9.008H709.3v2a5.611,5.611,0,0,1,2.074-1.639A6.417,6.417,0,0,1,714.148-9.24ZM724.533-.972a9.016,9.016,0,0,1,1.015-4.366,7.257,7.257,0,0,1,2.814-2.9,8.141,8.141,0,0,1,4.119-1.03,7.919,7.919,0,0,1,4.946,1.494,7.267,7.267,0,0,1,2.625,4.192h-4.38A3.2,3.2,0,0,0,734.5-5.222a3.411,3.411,0,0,0-2.045-.595A3.35,3.35,0,0,0,729.7-4.555a5.585,5.585,0,0,0-1.015,3.583A5.534,5.534,0,0,0,729.7,2.581a3.35,3.35,0,0,0,2.756,1.262,3.08,3.08,0,0,0,3.22-2.2h4.38a7.414,7.414,0,0,1-2.64,4.148,7.779,7.779,0,0,1-4.932,1.537,8.142,8.142,0,0,1-4.119-1.03,7.257,7.257,0,0,1-2.814-2.9A9.016,9.016,0,0,1,724.533-.972Zm34.608-.377a9.186,9.186,0,0,1-.116,1.508H747.277a4.034,4.034,0,0,0,1.189,2.785,3.733,3.733,0,0,0,2.669,1.015,3.316,3.316,0,0,0,3.22-1.944h4.38a7.321,7.321,0,0,1-2.669,3.815,7.791,7.791,0,0,1-4.844,1.494,8.383,8.383,0,0,1-4.163-1.03,7.249,7.249,0,0,1-2.872-2.915,8.935,8.935,0,0,1-1.03-4.351,9.1,9.1,0,0,1,1.015-4.38,7.084,7.084,0,0,1,2.843-2.9,8.516,8.516,0,0,1,4.206-1.015,8.449,8.449,0,0,1,4.1.986A6.965,6.965,0,0,1,758.141-5.5,8.389,8.389,0,0,1,759.141-1.349Zm-4.206-.957a3.464,3.464,0,0,0-1.117-2.654,3.922,3.922,0,0,0-2.713-.972,3.646,3.646,0,0,0-2.582.972,4.167,4.167,0,0,0-1.248,2.654Z" transform="translate(-471.527 41.342)" fill="url(#linear-gradient-7)"/>
</svg>
